<svg width="50" height="50" viewBox="0 0 50 50" fill="none" xmlns="http://www.w3.org/2000/svg">
<path d="M20.31 5C19.6151 5.00002 18.9339 5.19313 18.3424 5.55777C17.7508 5.9224 17.2722 6.44423 16.96 7.065L15.485 10H11.26C9.60241 10 8.01268 10.6585 6.84057 11.8306C5.66849 13.0027 5.01001 14.5924 5.01001 16.25V36.25C5.01001 37.9077 5.66849 39.4972 6.84057 40.6693C8.01268 41.8416 9.60241 42.5 11.26 42.5H24C23.5911 41.701 23.2621 40.8635 23.0175 40H11.2625C10.2679 40 9.31412 39.605 8.61084 38.9016C7.90759 38.1985 7.51251 37.2445 7.51251 36.25V16.25C7.51251 15.2554 7.90759 14.3016 8.61084 13.5984C9.31412 12.8951 10.2679 12.5 11.2625 12.5H16.2575C16.489 12.4995 16.7159 12.4348 16.9127 12.3129C17.1096 12.1911 17.2688 12.017 17.3725 11.81L19.1925 8.1875C19.2968 7.98061 19.4565 7.80675 19.6538 7.68536C19.8511 7.56396 20.0783 7.49979 20.31 7.5H29.72C29.9523 7.49956 30.1802 7.56388 30.3782 7.68577C30.5759 7.80765 30.7359 7.98227 30.84 8.19L32.6475 11.8075C32.7515 12.0149 32.9111 12.1893 33.1084 12.3111C33.3057 12.433 33.5332 12.4975 33.765 12.4975H38.7625C39.7571 12.4975 40.7109 12.8926 41.4142 13.5959C42.1173 14.2991 42.5125 15.2529 42.5125 16.2475V24.005C43.4075 24.4625 44.245 25.0175 45.0125 25.6525V16.2475C45.0125 14.5899 44.354 13.0002 43.1819 11.8281C42.0098 10.656 40.42 9.9975 38.7625 9.9975H34.5375L33.075 7.0725C32.7634 6.44956 32.2844 5.92571 31.6919 5.55965C31.0994 5.19358 30.4165 4.99979 29.72 5H20.31Z" fill="#747474"/>
<path d="M25.0001 15.0001C27.2324 15.0002 29.4008 15.7469 31.1597 17.1214C32.9189 18.4958 34.1676 20.4191 34.7076 22.5852C33.8764 22.6781 33.0555 22.8471 32.2551 23.0902C31.9193 21.8137 31.2526 20.6487 30.3224 19.7124C29.3922 18.776 28.2316 18.1016 26.9576 17.7572C25.6835 17.4128 24.3412 17.4105 23.066 17.7507C21.7908 18.0909 20.6279 18.7614 19.6947 19.6946C18.7614 20.6279 18.0909 21.7908 17.7507 23.066C17.4105 24.3412 17.4128 25.6835 17.7572 26.9577C18.1016 28.2316 18.776 29.3923 19.7123 30.3225C20.6487 31.2525 21.8139 31.9191 23.0901 32.2552C22.8474 33.0548 22.6783 33.8748 22.5851 34.7052C20.2229 34.1081 18.1597 32.6698 16.7827 30.6598C15.4056 28.6498 14.8093 26.2064 15.1057 23.7879C15.4021 21.3696 16.5708 19.1425 18.3925 17.5245C20.2142 15.9066 22.5637 15.009 25.0001 15.0001Z" fill="#747474"/>
<path d="M47.5 36.25C47.5 39.2338 46.3148 42.0952 44.205 44.205C42.0952 46.3148 39.2338 47.5 36.25 47.5C33.2662 47.5 30.4048 46.3148 28.295 44.205C26.1852 42.0952 25 39.2338 25 36.25C25 33.2662 26.1852 30.4048 28.295 28.295C30.4048 26.1852 33.2662 25 36.25 25C39.2338 25 42.0952 26.1852 44.205 28.295C46.3148 30.4048 47.5 33.2662 47.5 36.25ZM37.5 31.25C37.5 30.9185 37.3683 30.6006 37.134 30.366C36.8994 30.1317 36.5815 30 36.25 30C35.9185 30 35.6006 30.1317 35.366 30.366C35.1317 30.6006 35 30.9185 35 31.25V35H31.25C30.9185 35 30.6006 35.1317 30.366 35.366C30.1317 35.6006 30 35.9185 30 36.25C30 36.5815 30.1317 36.8994 30.366 37.134C30.6006 37.3683 30.9185 37.5 31.25 37.5H35V41.25C35 41.5815 35.1317 41.8994 35.366 42.134C35.6006 42.3683 35.9185 42.5 36.25 42.5C36.5815 42.5 36.8994 42.3683 37.134 42.134C37.3683 41.8994 37.5 41.5815 37.5 41.25V37.5H41.25C41.5815 37.5 41.8994 37.3683 42.134 37.134C42.3683 36.8994 42.5 36.5815 42.5 36.25C42.5 35.9185 42.3683 35.6006 42.134 35.366C41.8994 35.1317 41.5815 35 41.25 35H37.5V31.25Z" fill="#747474"/>
</svg>
