<svg width="50" height="48" viewBox="0 0 50 48" fill="none" xmlns="http://www.w3.org/2000/svg">
<g filter="url(#filter0_d)">
<path d="M17.4689 17.0156C10.5936 17.0156 5 22.6089 5 29.4842V33.8775C5 36.2542 6.93329 38.1875 9.30969 38.1875H25.6274C28.0042 38.1875 29.9374 36.2542 29.9374 33.8775V29.4842C29.9374 22.6089 24.3442 17.0156 17.4689 17.0156Z" fill="#A4E9FF"/>
<path d="M17.4688 17.0156V38.1875H25.6276C28.004 38.1875 29.9376 36.2542 29.9376 33.8775V29.4842C29.9373 22.6089 24.3441 17.0156 17.4688 17.0156Z" fill="#91BBFF"/>
<path d="M36.2968 20.7812C31.4979 20.7812 27.5938 24.6854 27.5938 29.4843C27.5938 34.2831 31.4979 38.1876 36.2968 38.1876C41.0956 38.1876 44.9998 34.2831 44.9998 29.4843C44.9998 24.6854 41.0956 20.7812 36.2968 20.7812Z" fill="#54E360"/>
<path d="M44.9999 29.4843C44.9999 24.6854 41.0958 20.7812 36.2969 20.7812V38.1876C41.0958 38.1876 44.9999 34.2831 44.9999 29.4843Z" fill="#1FBF66"/>
<path d="M38.8074 28.3124H37.4689V26.9739C37.4689 26.3269 36.944 25.802 36.297 25.802C35.6497 25.802 35.1251 26.3269 35.1251 26.9739V28.3124H33.7866C33.1393 28.3124 32.6147 28.8373 32.6147 29.4843C32.6147 30.1315 33.1393 30.6561 33.7866 30.6561H35.1251V31.9946C35.1251 32.6419 35.6497 33.1665 36.297 33.1665C36.944 33.1665 37.4689 32.6419 37.4689 31.9946V30.6561H38.8074C39.4547 30.6561 39.9792 30.1315 39.9792 29.4843C39.9792 28.8373 39.4547 28.3124 38.8074 28.3124Z" fill="#FFD6AA"/>
<path d="M17.4689 1.95312C12.67 1.95312 8.76562 5.85724 8.76562 10.6561C8.76562 15.4553 12.67 19.3594 17.4689 19.3594C22.2678 19.3594 26.1719 15.455 26.1719 10.6561C26.1719 5.85724 22.2678 1.95312 17.4689 1.95312Z" fill="#FFD6AA"/>
<path d="M17.4688 1.95312V19.3594C22.2676 19.3594 26.1718 15.4553 26.1718 10.6561C26.1718 5.85724 22.2676 1.95312 17.4688 1.95312Z" fill="#FAC68F"/>
<path d="M38.8073 28.3124H37.4688V26.9739C37.4688 26.3269 36.9438 25.802 36.2969 25.802V33.1665C36.9438 33.1665 37.4688 32.6419 37.4688 31.9946V30.6561H38.8073C39.4545 30.6561 39.9791 30.1315 39.9791 29.4843C39.9791 28.8373 39.4545 28.3124 38.8073 28.3124Z" fill="#FAC68F"/>
</g>
<defs>
<filter id="filter0_d" x="0" y="-1" width="50" height="50" filterUnits="userSpaceOnUse" color-interpolation-filters="sRGB">
<feFlood flood-opacity="0" result="BackgroundImageFix"/>
<feColorMatrix in="SourceAlpha" type="matrix" values="0 0 0 0 0 0 0 0 0 0 0 0 0 0 0 0 0 0 127 0"/>
<feOffset dy="4"/>
<feGaussianBlur stdDeviation="2.5"/>
<feColorMatrix type="matrix" values="0 0 0 0 0 0 0 0 0 0 0 0 0 0 0 0 0 0 0.25 0"/>
<feBlend mode="normal" in2="BackgroundImageFix" result="effect1_dropShadow"/>
<feBlend mode="normal" in="SourceGraphic" in2="effect1_dropShadow" result="shape"/>
</filter>
</defs>
</svg>
