<svg width="50" height="50" viewBox="0 0 50 50" fill="none" xmlns="http://www.w3.org/2000/svg">
<g filter="url(#filter0_d)">
<path d="M22.6562 19.125C17.6591 19.125 13.5938 15.0596 13.5938 10.0625C13.5938 5.06539 17.6591 1 22.6562 1C27.6534 1 31.7188 5.06539 31.7188 10.0625C31.7188 15.0596 27.6534 19.125 22.6562 19.125Z" fill="#4C5BD4"/>
<path d="M26.1719 25.7657C26.1719 23.7594 26.7352 21.8823 27.7116 20.2839C26.187 21.0411 24.4709 21.4688 22.6562 21.4688C20.3025 21.4688 18.1131 20.7521 16.2946 19.5255C14.046 20.3972 11.9832 21.7357 10.2267 23.4922C6.90656 26.8123 5.07812 31.2265 5.07812 35.9218V39.8282C5.07812 40.4754 5.60281 41 6.25 41H39.0625C39.7097 41 40.2344 40.4754 40.2344 39.8282V35.9218C40.2344 35.8514 40.2324 35.7808 40.2316 35.7103C39.1322 36.0998 37.9499 36.3125 36.7188 36.3125C30.9032 36.3125 26.1719 31.5812 26.1719 25.7657Z" fill="#4C5BD4"/>
<path d="M36.7188 17.5625C32.1955 17.5625 28.5156 21.2424 28.5156 25.7656C28.5156 30.2888 32.1955 33.9688 36.7188 33.9688C41.242 33.9688 44.9219 30.2888 44.9219 25.7656C44.9219 21.2424 41.242 17.5625 36.7188 17.5625ZM39.0625 26.9375H37.8906V28.1094C37.8906 28.7566 37.3659 29.2812 36.7188 29.2812C36.0716 29.2812 35.5469 28.7566 35.5469 28.1094V26.9375H34.375C33.7278 26.9375 33.2031 26.4128 33.2031 25.7656C33.2031 25.1184 33.7278 24.5938 34.375 24.5938H35.5469V23.4219C35.5469 22.7747 36.0716 22.25 36.7188 22.25C37.3659 22.25 37.8906 22.7747 37.8906 23.4219V24.5938H39.0625C39.7097 24.5938 40.2344 25.1184 40.2344 25.7656C40.2344 26.4128 39.7097 26.9375 39.0625 26.9375Z" fill="#4C5BD4"/>
</g>
<defs>
<filter id="filter0_d" x="0" y="0" width="50" height="50" filterUnits="userSpaceOnUse" color-interpolation-filters="sRGB">
<feFlood flood-opacity="0" result="BackgroundImageFix"/>
<feColorMatrix in="SourceAlpha" type="matrix" values="0 0 0 0 0 0 0 0 0 0 0 0 0 0 0 0 0 0 127 0"/>
<feOffset dy="4"/>
<feGaussianBlur stdDeviation="2.5"/>
<feColorMatrix type="matrix" values="0 0 0 0 0 0 0 0 0 0 0 0 0 0 0 0 0 0 0.25 0"/>
<feBlend mode="normal" in2="BackgroundImageFix" result="effect1_dropShadow"/>
<feBlend mode="normal" in="SourceGraphic" in2="effect1_dropShadow" result="shape"/>
</filter>
</defs>
</svg>
