<svg width="9" height="10" viewBox="0 0 9 10" fill="none" xmlns="http://www.w3.org/2000/svg">
<path d="M1.26956 7.98298H8.06086C8.08166 7.98298 8.1018 7.98001 8.12116 7.97538C8.1227 7.97538 8.12399 7.97564 8.12553 7.97564C8.2705 7.97564 8.38828 7.85764 8.38828 7.71212V0.263542C8.3883 0.118066 8.2705 0 8.12553 0H8.06138H1.68979H1.26993C0.570558 0 0.00168196 0.570713 0.00168196 1.27199C0.00168196 1.28139 0.00352697 1.29032 0.00443863 1.2994C0.00352697 1.9472 -0.00448261 7.89972 0.00352697 8.68225C0.00302773 8.69755 0.00116097 8.71249 0.00116097 8.72795C0.00116097 9.40227 0.527579 9.9543 1.18973 9.99602C1.20301 9.99806 1.21603 10 1.22982 10H8.1255C8.27048 10 8.38826 9.882 8.38826 9.73646V8.74445C8.38826 8.59902 8.27046 8.48091 8.1255 8.48091C7.98055 8.48091 7.86275 8.59904 7.86275 8.74445V9.47294H1.26956C0.870277 9.47294 0.544337 9.15497 0.528317 8.75847C0.528708 8.75139 0.529989 8.74471 0.529859 8.7375C0.529598 8.72592 0.529207 8.70792 0.528947 8.68397C0.551912 8.29374 0.874835 7.98298 1.26956 7.98298ZM1.44872 1.27199C1.44872 1.12651 1.56644 1.00845 1.71148 1.00845C1.85652 1.00845 1.97423 1.12651 1.97423 1.27199V6.62523C1.97423 6.77064 1.85652 6.88877 1.71148 6.88877C1.56644 6.88877 1.44872 6.77062 1.44872 6.62523V1.27199Z" fill="#AAAAAA"/>
</svg>
