<svg width="16" height="16" viewBox="0 0 16 16" fill="none" xmlns="http://www.w3.org/2000/svg">
<path d="M14.7425 11.3417L12.6492 9.24844C11.9016 8.50083 10.6307 8.7999 10.3316 9.77176C10.1073 10.4446 9.35972 10.8184 8.68688 10.6689C7.19167 10.2951 5.17314 8.35131 4.79934 6.78134C4.57506 6.10847 5.02362 5.36086 5.69646 5.13661C6.66835 4.83757 6.96739 3.56664 6.21979 2.81904L4.12649 0.725744C3.52841 0.202421 2.63129 0.202421 2.10796 0.725744L0.687515 2.14619C-0.732934 3.6414 0.837036 7.6037 4.35078 11.1174C7.86452 14.6312 11.8268 16.2759 13.322 14.7807L14.7425 13.3603C15.2658 12.7622 15.2658 11.8651 14.7425 11.3417Z" fill="#747474"/>
</svg>
