<svg width="24" height="24" viewBox="0 0 24 24" fill="none" xmlns="http://www.w3.org/2000/svg">
<g clip-path="url(#clip0)">
<path d="M22.9519 1.56205C21.8689 0.978891 20.661 2.10355 19.9528 2.77001C18.3284 4.35286 16.9538 6.18563 15.4126 7.85179C13.7048 9.68456 12.1219 11.5173 10.3724 13.3085C9.37276 14.3082 8.28976 15.3912 7.6233 16.6408C6.12376 15.1829 4.83249 13.6 3.16633 12.3088C1.95837 11.3924 -0.0410133 10.726 0.000640601 12.9336C0.0839483 15.8078 2.62483 18.8902 4.49926 20.8479C5.29068 21.6809 6.33203 22.5557 7.53999 22.5973C8.99787 22.6806 10.4974 20.9312 11.3721 19.9731C12.9134 18.307 14.163 16.4325 15.5792 14.7247C17.412 12.4754 19.2864 10.2677 21.0775 7.97675C22.2021 6.56051 25.7427 3.06152 22.9519 1.56205ZM1.83334 12.767C1.79169 12.767 1.75003 12.767 1.66673 12.8086C1.50011 12.767 1.37515 12.7253 1.20853 12.642C1.3335 12.5587 1.54177 12.6003 1.83334 12.767Z" fill="#5DC22D"/>
</g>
<defs>
<clipPath id="clip0">
<rect width="24" height="24" fill="white"/>
</clipPath>
</defs>
</svg>
