<svg width="42" height="50" viewBox="0 0 42 50" fill="none" xmlns="http://www.w3.org/2000/svg">
<g clip-path="url(#clip0)" filter="url(#filter0_d)">
<path d="M5.70557 1V37.4706H10.4114C10.902 36.7736 18.7445 25.6289 19.235 24.9319L19.8232 12.966L19.235 1C18.8534 1 6.08714 1 5.70557 1Z" fill="#F4D844"/>
<path d="M32.7648 1C32.3832 1 19.6169 1 19.2354 1V24.9319C19.987 23.8638 32.0132 6.77396 32.7648 5.70588C32.7648 5.13655 32.7648 1.5731 32.7648 1Z" fill="#ECBD2C"/>
<path d="M10.4111 5.70587V41H23.3523L24.5288 23.353L23.3523 5.70587C22.9873 5.70587 10.776 5.70587 10.4111 5.70587Z" fill="#F9F9F9"/>
<path d="M23.3525 5.70587V41H28.5322L30.2284 34.6732L36.2937 33.252C36.2937 33.252 36.2937 7.23544 36.2937 5.70587C35.9287 5.70587 23.7174 5.70587 23.3525 5.70587Z" fill="#E2DFF4"/>
<path d="M28.5327 41C29.4766 40.0578 35.3483 34.1962 36.2942 33.252C34.1911 33.252 29.7718 33.252 28.5327 33.252V41Z" fill="#BEBCDD"/>
<path d="M23.3525 12.7648C21.1346 12.7648 16.4092 12.7648 15.1172 12.7648C15.1172 11.9418 15.1172 11.2347 15.1172 10.4118H23.3525L24.529 11.5883L23.3525 12.7648Z" fill="#4E6BA6"/>
<path d="M23.3525 17.4706C21.1346 17.4706 16.4092 17.4706 15.1172 17.4706C15.1172 16.6477 15.1172 15.9406 15.1172 15.1177H23.3525L24.529 16.2941L23.3525 17.4706Z" fill="#A7CAFC"/>
<path d="M23.3525 22.1765C21.1346 22.1765 16.4092 22.1765 15.1172 22.1765C15.1172 21.3536 15.1172 20.6465 15.1172 19.8235H23.3525L24.529 21L23.3525 22.1765Z" fill="#A7CAFC"/>
<path d="M23.3525 26.8824C21.1346 26.8824 16.4092 26.8824 15.1172 26.8824C15.1172 26.0595 15.1172 25.3523 15.1172 24.5294H23.3525L24.529 25.7059L23.3525 26.8824Z" fill="#A7CAFC"/>
<path d="M31.5878 12.7648C29.37 12.7648 24.6445 12.7648 23.3525 12.7648C23.3525 11.9418 23.3525 11.2347 23.3525 10.4118H31.5878V12.7648Z" fill="#28487A"/>
<path d="M31.5878 17.4706C29.37 17.4706 24.6445 17.4706 23.3525 17.4706C23.3525 16.6477 23.3525 15.9406 23.3525 15.1177H31.5878V17.4706Z" fill="#8493FB"/>
<path d="M31.5878 22.1765C29.37 22.1765 24.6445 22.1765 23.3525 22.1765C23.3525 21.3536 23.3525 20.6465 23.3525 19.8235H31.5878V22.1765Z" fill="#8493FB"/>
<path d="M31.5878 26.8824C29.37 26.8824 24.6445 26.8824 23.3525 26.8824C23.3525 26.0595 23.3525 25.3523 23.3525 24.5294H31.5878V26.8824Z" fill="#8493FB"/>
<path d="M23.3525 31.5882C21.1346 31.5882 16.4092 31.5882 15.1172 31.5882C15.1172 30.7653 15.1172 30.0582 15.1172 29.2353H23.3525V31.5882Z" fill="#DD4E4E"/>
</g>
<defs>
<filter id="filter0_d" x="-4" y="0" width="50" height="50" filterUnits="userSpaceOnUse" color-interpolation-filters="sRGB">
<feFlood flood-opacity="0" result="BackgroundImageFix"/>
<feColorMatrix in="SourceAlpha" type="matrix" values="0 0 0 0 0 0 0 0 0 0 0 0 0 0 0 0 0 0 127 0"/>
<feOffset dy="4"/>
<feGaussianBlur stdDeviation="2.5"/>
<feColorMatrix type="matrix" values="0 0 0 0 0 0 0 0 0 0 0 0 0 0 0 0 0 0 0.25 0"/>
<feBlend mode="normal" in2="BackgroundImageFix" result="effect1_dropShadow"/>
<feBlend mode="normal" in="SourceGraphic" in2="effect1_dropShadow" result="shape"/>
</filter>
<clipPath id="clip0">
<rect width="40" height="40" fill="white" transform="translate(1 1)"/>
</clipPath>
</defs>
</svg>
