<svg width="24" height="24" viewBox="0 0 24 24" fill="none" xmlns="http://www.w3.org/2000/svg">
<path d="M21.4286 2.57143H18.8571V0.857159C18.8571 0.383755 18.4734 0 18 0C17.5266 0 17.1428 0.383755 17.1428 0.857159V2.57143H6.85712V0.857159C6.85712 0.383755 6.47337 0 6.00001 0C5.52666 0 5.14285 0.383755 5.14285 0.857159V2.57143H2.57143C1.15127 2.57143 0 3.72269 0 5.14285V21.4286C0 22.8487 1.15127 24 2.57143 24H21.4286C22.8487 24 24 22.8487 24 21.4286V5.14285C24 3.72269 22.8487 2.57143 21.4286 2.57143ZM22.2857 21.4286C22.2857 21.902 21.9019 22.2857 21.4285 22.2857H2.57143C2.09802 22.2857 1.71427 21.902 1.71427 21.4286V10.2857H22.2857V21.4286ZM22.2857 8.57144H1.71427V5.14285C1.71427 4.66945 2.09802 4.28569 2.57143 4.28569H5.14285V5.99996C5.14285 6.47337 5.52661 6.85712 6.00001 6.85712C6.47342 6.85712 6.85717 6.47337 6.85717 5.99996V4.28569H17.1429V5.99996C17.1429 6.47337 17.5266 6.85712 18 6.85712C18.4734 6.85712 18.8572 6.47337 18.8572 5.99996V4.28569H21.4286C21.902 4.28569 22.2858 4.66945 22.2858 5.14285V8.57144H22.2857Z" fill="#AAAAAA"/>
<path d="M6.85711 12H5.14281C4.6694 12 4.28564 12.3838 4.28564 12.8572C4.28564 13.3306 4.6694 13.7144 5.14281 13.7144H6.85711C7.33052 13.7144 7.71428 13.3306 7.71428 12.8572C7.71428 12.3838 7.33052 12 6.85711 12Z" fill="#AAAAAA"/>
<path d="M12.8571 12H11.1428C10.6694 12 10.2856 12.3838 10.2856 12.8572C10.2856 13.3306 10.6694 13.7144 11.1428 13.7144H12.8571C13.3305 13.7144 13.7142 13.3306 13.7142 12.8572C13.7142 12.3838 13.3305 12 12.8571 12Z" fill="#AAAAAA"/>
<path d="M18.8571 12H17.1428C16.6694 12 16.2856 12.3838 16.2856 12.8572C16.2856 13.3306 16.6694 13.7144 17.1428 13.7144H18.8571C19.3305 13.7144 19.7142 13.3306 19.7142 12.8572C19.7142 12.3838 19.3304 12 18.8571 12Z" fill="#AAAAAA"/>
<path d="M6.85711 15.429H5.14281C4.6694 15.429 4.28564 15.8127 4.28564 16.2861C4.28564 16.7595 4.6694 17.1433 5.14281 17.1433H6.85711C7.33052 17.1433 7.71428 16.7595 7.71428 16.2861C7.71428 15.8127 7.33052 15.429 6.85711 15.429Z" fill="#AAAAAA"/>
<path d="M12.8571 15.429H11.1428C10.6694 15.429 10.2856 15.8127 10.2856 16.2861C10.2856 16.7595 10.6694 17.1433 11.1428 17.1433H12.8571C13.3305 17.1433 13.7142 16.7595 13.7142 16.2861C13.7142 15.8127 13.3305 15.429 12.8571 15.429Z" fill="#AAAAAA"/>
<path d="M18.8571 15.429H17.1428C16.6694 15.429 16.2856 15.8127 16.2856 16.2861C16.2856 16.7595 16.6694 17.1433 17.1428 17.1433H18.8571C19.3305 17.1433 19.7142 16.7595 19.7142 16.2861C19.7142 15.8127 19.3304 15.429 18.8571 15.429Z" fill="#AAAAAA"/>
<path d="M6.85711 18.8569H5.14281C4.6694 18.8569 4.28564 19.2407 4.28564 19.7141C4.28564 20.1875 4.6694 20.5712 5.14281 20.5712H6.85711C7.33052 20.5712 7.71428 20.1874 7.71428 19.714C7.71428 19.2406 7.33052 18.8569 6.85711 18.8569Z" fill="#AAAAAA"/>
<path d="M12.8571 18.8569H11.1428C10.6694 18.8569 10.2856 19.2407 10.2856 19.7141C10.2856 20.1875 10.6694 20.5712 11.1428 20.5712H12.8571C13.3305 20.5712 13.7142 20.1875 13.7142 19.7141C13.7142 19.2407 13.3305 18.8569 12.8571 18.8569Z" fill="#AAAAAA"/>
<path d="M18.8571 18.8569H17.1428C16.6694 18.8569 16.2856 19.2407 16.2856 19.7141C16.2856 20.1875 16.6694 20.5712 17.1428 20.5712H18.8571C19.3305 20.5712 19.7142 20.1875 19.7142 19.7141C19.7142 19.2407 19.3304 18.8569 18.8571 18.8569Z" fill="#AAAAAA"/>
</svg>
