<svg width="50" height="50" viewBox="0 0 50 50" fill="none" xmlns="http://www.w3.org/2000/svg">
<circle cx="25" cy="25" r="25" fill="#E5E6E7"/>
<g clip-path="url(#clip0)">
<path d="M30.1727 24.4512L20.9222 15.2262C20.6191 14.9241 20.1284 14.9246 19.8258 15.2277C19.5235 15.5308 19.5242 16.0218 19.8274 16.3241L28.5273 25L19.827 33.6759C19.524 33.9783 19.5232 34.4689 19.8255 34.7721C19.9772 34.924 20.1759 35 20.3746 35C20.5728 35 20.7707 34.9245 20.9221 34.7736L30.1727 25.5489C30.3187 25.4036 30.4006 25.206 30.4006 25C30.4006 24.7941 30.3185 24.5967 30.1727 24.4512Z" fill="#747474"/>
</g>
<defs>
<clipPath id="clip0">
<rect width="20" height="20" fill="white" transform="translate(15 15)"/>
</clipPath>
</defs>
</svg>
