<svg width="24" height="24" viewBox="0 0 24 24" fill="none" xmlns="http://www.w3.org/2000/svg">
<path d="M14.8281 9.17121C14.6331 8.97621 14.3161 8.97621 14.1211 9.17121C13.9261 9.36621 13.9261 9.68421 14.1211 9.87822C14.6871 10.4442 15.0001 11.1972 15.0001 11.9992C15.0001 13.6532 13.6541 14.9992 12.0001 14.9992C11.1982 14.9992 10.4452 14.6872 9.87914 14.1202C9.68414 13.9252 9.36713 13.9252 9.17213 14.1202C8.97713 14.3142 8.97713 14.6322 9.17213 14.8272C9.92611 15.5832 10.9311 15.9992 12.0001 15.9992C14.2061 15.9992 16.0001 14.2052 16.0001 11.9993C16.0001 10.9302 15.5841 9.92519 14.8281 9.17121Z" fill="#747474"/>
<path d="M12.6971 8.06827C12.4701 8.02828 12.2381 7.99927 12.0001 7.99927C9.79412 7.99927 8.00012 9.79326 8.00012 11.9992C8.00012 12.2372 8.02914 12.4692 8.07011 12.6962C8.11309 12.9382 8.32412 13.1092 8.56112 13.1092C8.59014 13.1092 8.6191 13.1072 8.6491 13.1012C8.92009 13.0532 9.1021 12.7932 9.0541 12.5222C9.02312 12.3522 9.0001 12.1792 9.0001 11.9992C9.0001 10.3453 10.3461 8.99925 12.0001 8.99925C12.1801 8.99925 12.3531 9.02226 12.5231 9.05226C12.7891 9.10626 13.0541 8.91825 13.1021 8.64726C13.1501 8.37628 12.9681 8.11627 12.6971 8.06827Z" fill="#747474"/>
<path d="M23.881 11.6762C23.768 11.5422 21.063 8.38526 17.3321 6.45229C17.09 6.32531 16.7851 6.42131 16.658 6.66731C16.5311 6.91232 16.6271 7.21429 16.8731 7.34132C19.747 8.82931 22.043 11.1513 22.828 11.9993C21.636 13.2903 16.9451 17.9993 12.0001 17.9993C10.3221 17.9993 8.63113 17.5943 6.97214 16.7943C6.72614 16.6733 6.42516 16.7783 6.30516 17.0273C6.18418 17.2753 6.28918 17.5743 6.53817 17.6942C8.33315 18.5612 10.1712 18.9992 12.0002 18.9992C18.1611 18.9992 23.6511 12.5953 23.8821 12.3223C24.04 12.1362 24.039 11.8632 23.881 11.6762Z" fill="#747474"/>
<path d="M15.281 5.57526C14.143 5.19225 13.039 4.99927 12 4.99927C5.83902 4.99927 0.34905 11.4032 0.118052 11.6762C-0.0279631 11.8482 -0.039963 12.0983 0.0900674 12.2852C0.159067 12.3842 1.81206 14.7312 4.67704 16.6342C4.76202 16.6912 4.85704 16.7182 4.95304 16.7182C5.11405 16.7182 5.27305 16.6402 5.36905 16.4932C5.52205 16.2642 5.45905 15.9532 5.22903 15.8012C3.12506 14.4022 1.68507 12.7133 1.14606 12.0263C2.29707 10.7762 7.01904 5.99929 12 5.99929C12.931 5.99929 13.928 6.17531 14.962 6.52227C15.2239 6.61626 15.508 6.47127 15.595 6.20826C15.683 5.94628 15.543 5.66329 15.281 5.57526Z" fill="#747474"/>
<path d="M20.8526 3.14625C20.6576 2.95125 20.3406 2.95125 20.1456 3.14625L3.14576 20.1462C2.95076 20.3412 2.95076 20.6582 3.14576 20.8532C3.24378 20.9501 3.37174 20.9992 3.49976 20.9992C3.62777 20.9992 3.75574 20.9502 3.85277 20.8532L20.8526 3.85326C21.0476 3.65826 21.0476 3.34125 20.8526 3.14625Z" fill="#747474"/>
</svg>
