<svg width="24" height="24" viewBox="0 0 24 24" fill="none" xmlns="http://www.w3.org/2000/svg">
<path d="M23.9111 11.7161C23.7221 11.4411 19.1801 5 12 5C5.83884 5 0.348744 11.4041 0.11774 11.6771C-0.0392468 11.8631 -0.0392468 12.1361 0.11774 12.3231C0.348744 12.5961 5.83884 19.0003 12 19.0003C18.1611 19.0003 23.6511 12.5961 23.8821 12.3231C24.0272 12.1511 24.0401 11.9021 23.9111 11.7161ZM12 18.0002C7.06089 18.0002 2.36478 13.2902 1.17179 12.0001C2.36281 10.7091 7.0539 6.00005 12 6.00005C17.779 6.00005 21.8581 10.7031 22.8541 11.9731C21.7041 13.2222 16.981 18.0002 12 18.0002Z" fill="#747474"/>
<path d="M11.9998 8.00006C9.79379 8.00006 7.99976 9.79409 7.99976 12.0001C7.99976 14.2061 9.79379 16.0002 11.9998 16.0002C14.2058 16.0002 15.9999 14.2061 15.9999 12.0001C15.9999 9.79409 14.2058 8.00006 11.9998 8.00006ZM11.9998 15.0002C10.3458 15.0002 8.99976 13.6542 8.99976 12.0002C8.99976 10.3462 10.3458 9.00011 11.9998 9.00011C13.6538 9.00011 14.9999 10.3462 14.9999 12.0002C14.9999 13.6542 13.6538 15.0002 11.9998 15.0002Z" fill="#747474"/>
</svg>
