<svg width="8" height="10" viewBox="0 0 8 10" fill="none" xmlns="http://www.w3.org/2000/svg">
<path d="M3.80859 0C1.70859 0 0 1.70859 0 3.80859C0 4.63965 0.2625 5.4293 0.759766 6.0918L3.57383 9.88186C3.58086 9.89104 3.5916 9.89455 3.59941 9.90275C3.74004 10.0533 3.94297 10.0154 4.04316 9.88186C4.85352 8.8006 6.33887 6.78125 6.90996 6.01953C6.90996 6.01953 6.91016 6.01895 6.91035 6.01855L6.91387 6.01387C7.37402 5.36738 7.61719 4.60488 7.61719 3.80859C7.61719 1.70859 5.90859 0 3.80859 0ZM3.80859 5.86328C2.67793 5.86328 1.75391 4.93926 1.75391 3.80859C1.75391 2.67793 2.67793 1.75391 3.80859 1.75391C4.93926 1.75391 5.86328 2.67793 5.86328 3.80859C5.86328 4.93926 4.93926 5.86328 3.80859 5.86328Z" fill="#747474"/>
</svg>
