<svg width="10" height="10" viewBox="0 0 10 10" fill="none" xmlns="http://www.w3.org/2000/svg">
<path d="M8.53555 1.46445C7.59117 0.520078 6.33555 0 5 0C3.66445 0 2.40883 0.520078 1.46445 1.46445C0.520078 2.40883 0 3.66445 0 5C0 6.33555 0.520098 7.59115 1.46445 8.53555C2.40881 9.47994 3.66445 10 5 10C6.33555 10 7.59117 9.47992 8.53555 8.53555C9.47992 7.59117 10 6.33555 10 5C10 3.66445 9.4799 2.40885 8.53555 1.46445ZM5 4.6875C5.77541 4.6875 6.40625 5.31834 6.40625 6.09375C6.40625 6.73588 5.9735 7.2785 5.38441 7.44615C5.34209 7.4582 5.3125 7.49627 5.3125 7.54027V7.80367C5.3125 7.97195 5.18318 8.11674 5.0151 8.12465C4.83562 8.13309 4.6875 7.9901 4.6875 7.8125V7.54021C4.6875 7.49633 4.65809 7.45824 4.61588 7.44623C4.02932 7.27943 3.59768 6.7409 3.59377 6.10248C3.59273 5.93207 3.72672 5.78627 3.89707 5.78139C4.07385 5.77631 4.21875 5.91811 4.21875 6.09375C4.21875 6.54301 4.59994 6.90492 5.05584 6.87305C5.44068 6.84615 5.75242 6.53439 5.7793 6.14955C5.81113 5.69363 5.44924 5.3125 5 5.3125C4.22459 5.3125 3.59375 4.68166 3.59375 3.90625C3.59375 3.26412 4.0265 2.7215 4.61559 2.55385C4.65791 2.5418 4.6875 2.50373 4.6875 2.45973V2.19633C4.6875 2.02805 4.81682 1.88326 4.9849 1.87535C5.16438 1.86691 5.3125 2.0099 5.3125 2.1875V2.45979C5.3125 2.50367 5.34191 2.54176 5.38412 2.55377C5.97068 2.72057 6.40232 3.2591 6.40623 3.89752C6.40727 4.06793 6.27328 4.21373 6.10293 4.21861C5.92615 4.22369 5.78125 4.08189 5.78125 3.90625C5.78125 3.45699 5.40006 3.09508 4.94416 3.12695C4.55932 3.15385 4.24758 3.46561 4.2207 3.85045C4.18887 4.30637 4.55076 4.6875 5 4.6875Z" fill="#F8971C"/>
</svg>
