<svg width="20" height="20" viewBox="0 0 20 20" fill="none" xmlns="http://www.w3.org/2000/svg">
<path d="M19.1667 15.8333H16.9475C16.5867 14.6325 15.4833 13.75 14.1667 13.75C12.85 13.75 11.7475 14.6325 11.3859 15.8333H0.83332C0.37332 15.8333 0 16.2067 0 16.6667C0 17.1267 0.37332 17.5 0.83332 17.5H11.3858C11.7466 18.7008 12.85 19.5833 14.1666 19.5833C15.4833 19.5833 16.5858 18.7008 16.9475 17.5H19.1666C19.6275 17.5 20 17.1267 20 16.6667C20 16.2067 19.6275 15.8333 19.1667 15.8333ZM14.1667 17.9167C13.4775 17.9167 12.9167 17.3559 12.9167 16.6667C12.9167 15.9775 13.4775 15.4167 14.1667 15.4167C14.8559 15.4167 15.4167 15.9775 15.4167 16.6667C15.4167 17.3559 14.8558 17.9167 14.1667 17.9167Z" fill="#282828"/>
<path d="M19.1667 2.50007H16.9475C16.5858 1.29925 15.4833 0.416748 14.1667 0.416748C12.85 0.416748 11.7475 1.29925 11.3858 2.50007H0.83332C0.37332 2.50007 0 2.87339 0 3.33339C0 3.79339 0.37332 4.16671 0.83332 4.16671H11.3858C11.7475 5.36757 12.85 6.25007 14.1667 6.25007C15.4834 6.25007 16.5859 5.36757 16.9475 4.16675H19.1667C19.6275 4.16675 20 3.79343 20 3.33343C20 2.87343 19.6275 2.50007 19.1667 2.50007ZM14.1667 4.58339C13.4775 4.58339 12.9167 4.02257 12.9167 3.33339C12.9167 2.64421 13.4775 2.08339 14.1667 2.08339C14.8559 2.08339 15.4167 2.64421 15.4167 3.33339C15.4167 4.02257 14.8558 4.58339 14.1667 4.58339Z" fill="#282828"/>
<path d="M19.1667 9.1667H8.61418C8.2525 7.96588 7.15 7.08337 5.83336 7.08337C4.51672 7.08337 3.41418 7.96588 3.05254 9.1667H0.83332C0.37332 9.1667 0 9.54002 0 10C0 10.46 0.37332 10.8333 0.83332 10.8333H3.0525C3.41418 12.0342 4.51668 12.9167 5.83332 12.9167C7.14996 12.9167 8.2525 12.0342 8.61414 10.8333H19.1666C19.6275 10.8333 20 10.46 20 10C20 9.54002 19.6275 9.1667 19.1667 9.1667ZM5.83332 11.25C5.14414 11.25 4.58332 10.6892 4.58332 10C4.58332 9.31084 5.14414 8.75002 5.83332 8.75002C6.5225 8.75002 7.08332 9.31084 7.08332 10C7.08332 10.6892 6.5225 11.25 5.83332 11.25Z" fill="#282828"/>
</svg>
