<svg width="20" height="20" viewBox="0 0 20 20" fill="none" xmlns="http://www.w3.org/2000/svg">
<path d="M17.0627 2.92973C13.1567 -0.976284 6.83462 -0.97687 2.92806 2.92973C-0.212955 6.0707 -0.806497 10.7411 1.05048 14.4605L0.0209755 18.9889C-0.112838 19.5775 0.414677 20.1053 1.00349 19.9714L5.53193 18.9419C12.1163 22.2293 19.9902 17.47 19.9902 9.99708C19.9902 7.32745 18.9505 4.81755 17.0627 2.92973ZM12.0803 12.486H5.82548C5.37209 12.486 5.00454 12.1184 5.00454 11.665C5.00454 11.2116 5.37209 10.8441 5.82548 10.8441H12.0803C12.5337 10.8441 12.9012 11.2116 12.9012 11.665C12.9012 12.1184 12.5337 12.486 12.0803 12.486ZM14.1653 9.15006H5.82548C5.37209 9.15006 5.00454 8.78252 5.00454 8.32912C5.00454 7.87572 5.37209 7.50818 5.82548 7.50818H14.1653C14.6187 7.50818 14.9862 7.87572 14.9862 8.32912C14.9862 8.78252 14.6186 9.15006 14.1653 9.15006Z" fill="#AAAAAA"/>
</svg>
