<svg width="20" height="24" viewBox="0 0 20 24" fill="none" xmlns="http://www.w3.org/2000/svg">
<path d="M19.5374 20.2428L17.8541 17.3809C17.0766 16.0599 16.6658 14.5469 16.6658 13.0069V10.4999C16.6658 7.33494 14.5953 4.65798 11.7639 3.79497V2C11.7639 0.896992 10.8845 0 9.80312 0C8.72175 0 7.84234 0.896992 7.84234 2V3.79497C5.01102 4.65798 2.94045 7.33494 2.94045 10.4999V13.0069C2.94045 14.5469 2.52966 16.0589 1.75319 17.3799L0.0698905 20.2419C-0.0212852 20.3969 -0.0232612 20.5889 0.0640083 20.7459C0.151278 20.9028 0.313041 20.9999 0.48951 20.9999H19.1168C19.2933 20.9999 19.456 20.9029 19.5433 20.7469C19.6305 20.5908 19.6276 20.3968 19.5374 20.2428Z" fill="#AAAAAA"/>
<path d="M6.71631 22C7.26924 23.178 8.43982 24 9.80351 24C11.1672 24 12.3378 23.178 12.8907 22H6.71631Z" fill="#AAAAAA"/>
</svg>
