<svg width="50" height="47" viewBox="0 0 50 47" fill="none" xmlns="http://www.w3.org/2000/svg">
<g clip-path="url(#clip0)" filter="url(#filter0_d)">
<path d="M26.2551 37.4796C25.3999 37.4796 24.89 36.6324 25.1537 35.907L30.1744 22.0996C30.3957 21.4914 31.0683 21.1777 31.6765 21.3986C32.2847 21.6199 32.5984 22.2925 32.3772 22.9007L27.3564 36.7078C27.1831 37.1839 26.7339 37.4796 26.2551 37.4796Z" fill="#4C5BD4"/>
<path d="M38.8074 37.4795C38.3301 37.4795 37.8814 37.1857 37.7072 36.7114L32.6361 22.9041C32.413 22.2964 32.7249 21.6232 33.3322 21.4001C33.9395 21.1768 34.613 21.4887 34.8361 22.0959L39.9072 35.9033C40.1929 36.6809 39.6069 37.4795 38.8074 37.4795Z" fill="#4C5BD4"/>
<path d="M41.318 2.5H23.7444C21.7111 2.5 20.0625 4.14856 20.0625 6.18195V19.9899C20.0625 22.0233 21.7111 23.6719 23.7444 23.6719H41.318C43.3514 23.6719 44.9999 22.0233 44.9999 19.9899V6.18195C44.9999 4.14856 43.3514 2.5 41.318 2.5Z" fill="#4C5BD4"/>
<path d="M41.3182 2.5H32.3774V23.6719H41.3182C43.3516 23.6719 45.0001 22.0233 45.0001 19.9899V6.18195C45.0001 4.14856 43.3516 2.5 41.3182 2.5Z" fill="#4C5BD4"/>
<path d="M17.5519 9.94812C17.5519 12.767 15.2667 15.0522 12.4478 15.0522C9.62891 15.0522 7.34375 12.767 7.34375 9.94812C7.34375 7.12891 9.62891 4.84375 12.4478 4.84375C15.2667 4.84375 17.5519 7.12891 17.5519 9.94812Z" fill="#4C5BD4"/>
<path d="M23.8481 22.2931C23.2692 22.0035 23.0348 21.2997 23.3241 20.7208L26.4623 14.4446C26.7519 13.8656 27.4559 13.6313 28.0345 13.9206C28.6134 14.2102 28.8478 14.9139 28.5585 15.4928L25.4204 21.7688C25.1305 22.3486 24.4261 22.5821 23.8481 22.2931Z" fill="white"/>
<path d="M38.8076 9.23737H26.2554C25.6081 9.23737 25.0835 8.71246 25.0835 8.06549C25.0835 7.41821 25.6081 6.89362 26.2554 6.89362H38.8076C39.4545 6.89362 39.9794 7.41821 39.9794 8.06549C39.9794 8.71246 39.4548 9.23737 38.8076 9.23737Z" fill="white"/>
<path d="M38.8075 14.2578H33.5493C32.902 14.2578 32.3774 13.7332 32.3774 13.0859C32.3774 12.4387 32.902 11.9141 33.5493 11.9141H38.8075C39.4548 11.9141 39.9794 12.4387 39.9794 13.0859C39.9794 13.7332 39.4548 14.2578 38.8075 14.2578Z" fill="white"/>
<path d="M38.8075 19.2786H33.5493C32.902 19.2786 32.3774 18.7537 32.3774 18.1067C32.3774 17.4594 32.902 16.9348 33.5493 16.9348H38.8075C39.4548 16.9348 39.9794 17.4594 39.9794 18.1067C39.9794 18.7537 39.4548 19.2786 38.8075 19.2786Z" fill="white"/>
<path d="M38.8075 6.89362H32.3774V9.23737H38.8075C39.4548 9.23737 39.9794 8.71246 39.9794 8.06549C39.9794 7.41821 39.4548 6.89362 38.8075 6.89362Z" fill="white"/>
<path d="M16.2134 37.4792H8.68225C8.03497 37.4792 7.51038 36.9546 7.51038 36.3074V29.7568C6.05255 29.2664 5 27.8867 5 26.2656V22.5C5 20.5075 5.77545 18.6368 7.18323 17.2327C8.56445 15.8478 10.484 15.0522 12.4481 15.0522H13.4836C15.5392 15.0522 16.7441 15.8051 18.4326 16.6446C20.2921 17.5693 22.612 18.7228 24.0915 19.4598C25.4565 20.1382 26.1102 21.7291 25.6189 23.1692C25.6174 23.1738 25.6158 23.1784 25.6143 23.183C25.3186 24.0576 24.6558 24.7623 23.7955 25.1163C22.9324 25.4675 21.9653 25.4303 21.1371 25.0162C19.9561 24.4254 18.4964 23.6957 17.3856 23.1406V36.3074C17.3853 36.9546 16.8607 37.4792 16.2134 37.4792Z" fill="#4C5BD4"/>
</g>
<defs>
<filter id="filter0_d" x="0" y="-1" width="50" height="50" filterUnits="userSpaceOnUse" color-interpolation-filters="sRGB">
<feFlood flood-opacity="0" result="BackgroundImageFix"/>
<feColorMatrix in="SourceAlpha" type="matrix" values="0 0 0 0 0 0 0 0 0 0 0 0 0 0 0 0 0 0 127 0"/>
<feOffset dy="4"/>
<feGaussianBlur stdDeviation="2.5"/>
<feColorMatrix type="matrix" values="0 0 0 0 0 0 0 0 0 0 0 0 0 0 0 0 0 0 0.25 0"/>
<feBlend mode="normal" in2="BackgroundImageFix" result="effect1_dropShadow"/>
<feBlend mode="normal" in="SourceGraphic" in2="effect1_dropShadow" result="shape"/>
</filter>
<clipPath id="clip0">
<rect width="40" height="40" fill="white" transform="translate(5)"/>
</clipPath>
</defs>
</svg>
