<svg width="20" height="20" viewBox="0 0 20 20" fill="none" xmlns="http://www.w3.org/2000/svg">
<path d="M19.1386 12.1917L17.3003 10.7542C17.3236 10.5325 17.3436 10.2734 17.3436 9.99918C17.3436 9.725 17.3244 9.46586 17.3003 9.24418L19.1403 7.80586C19.482 7.53586 19.5753 7.05668 19.3578 6.65754L17.4461 3.35C17.2419 2.97668 16.7944 2.785 16.3403 2.9525L14.1711 3.82332C13.7553 3.52332 13.3194 3.27 12.8686 3.0675L12.5386 0.76668C12.4844 0.33 12.1044 0 11.6553 0H7.82198C7.3728 0 6.99366 0.33 6.9403 0.76L6.60948 3.06918C6.1728 3.26586 5.74366 3.51586 5.30948 3.825L3.13448 2.95168C2.72694 2.79418 2.23944 2.97082 2.03694 3.3425L0.122802 6.65418C-0.103018 7.03586 -0.00969797 7.53168 0.339482 7.80836L2.1778 9.24586C2.14862 9.52668 2.13448 9.77086 2.13448 10C2.13448 10.2292 2.14866 10.4734 2.1778 10.755L0.337802 12.1934C-0.00387765 12.4642 -0.0963776 12.9434 0.121122 13.3417L2.0328 16.6492C2.23698 17.0217 2.6803 17.215 3.13862 17.0467L5.3078 16.1759C5.7228 16.475 6.15862 16.7284 6.60948 16.9317L6.93948 19.2317C6.99362 19.67 7.3728 20 7.8228 20H11.6561C12.1053 20 12.4853 19.67 12.5386 19.24L12.8694 16.9317C13.3061 16.7342 13.7344 16.485 14.1694 16.175L16.3444 17.0483C16.4494 17.0891 16.5586 17.11 16.6711 17.11C16.9944 17.11 17.2919 16.9333 17.4419 16.6583L19.3619 13.3333C19.5753 12.9433 19.4819 12.4642 19.1386 12.1917ZM9.73862 13.3333C7.9003 13.3333 6.4053 11.8383 6.4053 10C6.4053 8.16168 7.9003 6.66668 9.73862 6.66668C11.5769 6.66668 13.0719 8.16168 13.0719 10C13.0719 11.8383 11.5769 13.3333 9.73862 13.3333Z" fill="#AAAAAA"/>
</svg>
