<svg width="10" height="10" viewBox="0 0 10 10" fill="none" xmlns="http://www.w3.org/2000/svg">
<path d="M6.2334 3.23145L6.35501 3.50062L6.64945 3.52401L9.49968 3.75046L9.49997 3.75057L9.49999 3.75059C9.49999 3.75086 9.49985 3.751 9.49963 3.7512L7.23212 5.79148L7 6.00034L7.08581 6.30057L7.99989 9.49866L7.99989 9.49888L7.99973 9.49909L8.0002 9.49974L8.0002 9.49975L7.99972 9.49909L7.99941 9.4992L7.99909 9.4991L5.27737 7.68487L5.00004 7.50001L4.72272 7.68487L2.0002 9.49963L1.99965 9.49999L1.9997 9.49976L2.7447 6.27419L2.80802 6.00002L2.60652 5.80361L0.500115 3.75048L3.35063 3.52401L3.64509 3.50062L3.7667 3.23142L4.99993 0.501392L6.2334 3.23145Z" stroke="#F8971C"/>
</svg>
