<svg width="20" height="18" viewBox="0 0 20 18" fill="none" xmlns="http://www.w3.org/2000/svg">
<path d="M9.67118 2.63253L10.0002 2.91995L10.3291 2.63253C11.3922 1.70377 12.8678 1.04799 14.3709 1.00378C15.8602 0.959977 17.3118 1.48973 18.4408 2.90317C19.6199 4.39359 19.5107 7.02477 18.0072 9.85633C16.5262 12.6127 13.7894 15.3547 10.0002 17.0003C6.21012 15.3543 3.47484 12.6123 2.01813 9.85822L2.01815 9.85821L2.01621 9.85462C0.489362 7.02408 0.380827 4.39306 1.55952 2.90317C2.68848 1.48973 4.14014 0.959977 5.62945 1.00378C7.13255 1.04799 8.60814 1.70377 9.67118 2.63253Z" fill="white" stroke="#F8971C"/>
</svg>
