<svg width="20" height="18" viewBox="0 0 20 18" fill="none" xmlns="http://www.w3.org/2000/svg">
<path d="M9.67093 2.63245L9.99991 2.91987L10.3289 2.63245C11.3919 1.70369 12.8675 1.04791 14.3706 1.0037C15.8599 0.959901 17.3116 1.48965 18.4405 2.90309C19.6196 4.39351 19.5105 7.0247 18.0069 9.85625C16.5259 12.6126 13.7892 15.3546 9.99991 17.0002C6.20988 15.3543 3.4746 12.6122 2.01789 9.85814L2.0179 9.85814L2.01597 9.85454C0.489118 7.024 0.380582 4.39299 1.55928 2.90309C2.68823 1.48965 4.13989 0.959901 5.62921 1.0037C7.13231 1.04791 8.60789 1.70369 9.67093 2.63245Z" fill="white" stroke="#F8971C"/>
</svg>
