<svg width="20" height="20" viewBox="0 0 20 20" fill="none" xmlns="http://www.w3.org/2000/svg">
<path d="M19.8779 19.2887L13.7925 13.2033C15.0565 11.7999 15.8334 9.94957 15.8334 7.91664C15.8333 3.55145 12.2819 0 7.91668 0C3.55145 0 0 3.55145 0 7.91668C0 12.2819 3.55145 15.8334 7.91668 15.8334C9.94961 15.8334 11.7999 15.0565 13.2034 13.7925L19.2887 19.8779C19.3701 19.9593 19.4768 20 19.5834 20C19.69 20 19.7966 19.9593 19.878 19.8779C20.0407 19.7152 20.0407 19.4515 19.8779 19.2887ZM7.91668 15C4.01125 15 0.833359 11.8225 0.833359 7.91668C0.833359 4.01086 4.01125 0.83332 7.91668 0.83332C11.8221 0.83332 15 4.01082 15 7.91668C15 11.8225 11.8221 15 7.91668 15Z" fill="#AAAAAA"/>
</svg>
