<svg width="40" height="40" viewBox="0 0 40 40" fill="none" xmlns="http://www.w3.org/2000/svg">
<path d="M20 4C15.7565 4 11.6869 5.68571 8.68629 8.68629C5.68571 11.6869 4 15.7565 4 20C4 24.2435 5.68571 28.3131 8.68629 31.3137C11.6869 34.3143 15.7565 36 20 36C24.2435 36 28.3131 34.3143 31.3137 31.3137C34.3143 28.3131 36 24.2435 36 20C36 15.7565 34.3143 11.6869 31.3137 8.68629C28.3131 5.68571 24.2435 4 20 4ZM0 20C0 8.954 8.954 0 20 0C31.046 0 40 8.954 40 20C40 31.046 31.046 40 20 40C8.954 40 0 31.046 0 20Z" fill="#FE4B4B"/>
<path d="M20 24C19.4696 24 18.9609 23.7893 18.5858 23.4142C18.2107 23.0391 18 22.5304 18 22V10C18 9.46957 18.2107 8.96086 18.5858 8.58579C18.9609 8.21071 19.4696 8 20 8C20.5304 8 21.0391 8.21071 21.4142 8.58579C21.7893 8.96086 22 9.46957 22 10V22C22 22.5304 21.7893 23.0391 21.4142 23.4142C21.0391 23.7893 20.5304 24 20 24ZM17 29C17 28.2044 17.3161 27.4413 17.8787 26.8787C18.4413 26.3161 19.2044 26 20 26C20.7956 26 21.5587 26.3161 22.1213 26.8787C22.6839 27.4413 23 28.2044 23 29C23 29.7956 22.6839 30.5587 22.1213 31.1213C21.5587 31.6839 20.7956 32 20 32C19.2044 32 18.4413 31.6839 17.8787 31.1213C17.3161 30.5587 17 29.7956 17 29Z" fill="#FE4B4B"/>
</svg>
