<svg width="40" height="40" viewBox="0 0 40 40" fill="none" xmlns="http://www.w3.org/2000/svg">
<path d="M14.4287 31.6025L16.9693 33.5081L15.285 28.4562L14.9293 28.6019L14.4287 31.6025Z" fill="#4C5BD4"/>
<path d="M16.875 16.25C17.5644 16.25 18.125 15.6894 18.125 15C18.125 14.3106 17.5644 13.75 16.875 13.75H14.375V15C14.375 15.6894 14.9356 16.25 15.625 16.25H16.875Z" fill="#4C5BD4"/>
<path d="M20 26.2837L19.8025 26.2181C19.2106 26.0206 18.6431 25.7794 18.1031 25.4981C18.0531 26.02 17.8825 26.5125 17.6006 26.9337L20 29.6756L22.4 26.9331C22.1181 26.5119 21.9475 26.0194 21.8975 25.4975C21.3575 25.7787 20.7893 26.0206 20.1981 26.2175L20 26.2837Z" fill="#4C5BD4"/>
<path d="M10.6249 11.4556V13.7656C10.9899 13.4894 11.4105 13.2825 11.8749 13.1881V8.125H12.4999C14.6767 8.125 16.7442 8.56375 18.6911 9.42875C20.4774 10.2225 22.3736 10.625 24.328 10.625H28.1249V13.1881C28.5892 13.2831 29.0099 13.4894 29.3749 13.7656V10.8769C29.3749 8.1275 28.143 5.565 25.9961 3.8475C24.4067 2.57563 22.4092 1.875 20.373 1.875H18.2349C14.8586 1.875 11.7611 3.57562 9.94799 6.42375L8.96924 7.96187C10.013 8.815 10.6249 10.0913 10.6249 11.4556ZM27.953 9.24375L26.7311 9.50625C26.6467 9.115 26.5274 8.73125 26.3749 8.36563L27.5286 7.88437C27.7099 8.32 27.8524 8.77812 27.953 9.24375ZM19.3749 3.125H20.373C22.1261 3.125 23.8461 3.72812 25.2155 4.82312C25.8267 5.3125 26.3561 5.88437 26.7911 6.52375L25.7574 7.22687C25.393 6.69125 24.948 6.21063 24.4349 5.79938C23.2861 4.88125 21.843 4.375 20.373 4.375H19.3749V3.125Z" fill="#4C5BD4"/>
<path d="M23.0308 33.5081L25.5714 31.6025L25.0708 28.6019L24.7151 28.4562L23.0308 33.5081Z" fill="#4C5BD4"/>
<path d="M28.125 15.2194C28.125 16.2081 27.9957 17.1731 27.7588 18.0994C28.6694 17.9712 29.375 17.1956 29.375 16.25C29.375 15.4362 28.8507 14.7487 28.125 14.49V15.2194Z" fill="#4C5BD4"/>
<path d="M26.875 15C26.875 16.3787 25.7537 17.5 24.375 17.5H23.125C21.7463 17.5 20.625 16.3787 20.625 15H19.375C19.375 16.3787 18.2537 17.5 16.875 17.5H15.625C14.2462 17.5 13.125 16.3787 13.125 15V15.2194C13.125 19.6087 15.8788 23.4987 20 24.9644C24.1213 23.4987 26.875 19.6094 26.875 15.2194V15ZM20 22.5C18.6213 22.5 17.5 21.3787 17.5 20H18.75C18.75 20.6894 19.3106 21.25 20 21.25C20.6894 21.25 21.25 20.6894 21.25 20H22.5C22.5 21.3787 21.3787 22.5 20 22.5Z" fill="#4C5BD4"/>
<path d="M24.375 16.25C25.0644 16.25 25.625 15.6894 25.625 15V13.75H23.125C22.4356 13.75 21.875 14.3106 21.875 15C21.875 15.6894 22.4356 16.25 23.125 16.25H24.375Z" fill="#4C5BD4"/>
<path d="M22.9667 33.7012L21.4917 38.125H21.6161L24.1954 35.5456L22.9667 33.7012Z" fill="#4C5BD4"/>
<path d="M35.6032 38.125C35.37 34.8406 33.3125 31.9738 30.2282 30.7125L26.4307 29.1588L26.9288 32.1475L24.5982 33.8956L25.805 35.705L23.3838 38.125H29.375V34.375H30.625V38.125H35.6032Z" fill="#4C5BD4"/>
<path d="M23.295 27.8088L20 31.5744L16.705 27.8088C16.6194 27.8644 16.5294 27.915 16.4375 27.9625L19.825 38.125H20.1744L23.5619 27.9625C23.4706 27.9144 23.3806 27.8644 23.295 27.8088Z" fill="#4C5BD4"/>
<path d="M10.625 16.25C10.625 17.1956 11.3306 17.9712 12.2412 18.0987C12.0044 17.1725 11.875 16.2081 11.875 15.2194V14.4906C11.1494 14.7487 10.625 15.4362 10.625 16.25Z" fill="#4C5BD4"/>
<path d="M26.875 11.875H24.3281C22.1981 11.875 20.1306 11.4363 18.1838 10.5713C16.5744 9.85628 14.875 9.45878 13.125 9.3869V12.5H16.875C17.7962 12.5 18.5938 13.0063 19.0275 13.75H20.9725C21.4062 13.0063 22.2037 12.5 23.125 12.5H26.875V11.875Z" fill="#4C5BD4"/>
<path d="M15.4026 33.895L13.072 32.1469L13.5701 29.1581L9.7726 30.7119C6.6876 31.9738 4.6301 34.8406 4.39697 38.125H9.3751V34.375H10.6251V38.125H16.6163L14.1957 35.7044L15.4026 33.895Z" fill="#4C5BD4"/>
<path d="M15.8042 35.5456L18.3836 38.125H18.5079L17.0329 33.7012L15.8042 35.5456Z" fill="#4C5BD4"/>
</svg>
