<svg width="50" height="50" viewBox="0 0 50 50" fill="none" xmlns="http://www.w3.org/2000/svg">
<g filter="url(#filter0_d)">
<path d="M28.609 1.92456H6.01946C5.45641 1.92456 5 2.38097 5 2.94402V19.6854C5 20.2484 5.45641 20.7048 6.01946 20.7048H28.1944L25.5107 19.0385C25.3351 18.9294 25.1761 18.804 25.0334 18.666H7.03883V3.96339H27.5896V13.8621C27.9029 13.9283 28.2101 14.0488 28.4978 14.2275L29.6285 14.9295V2.94402C29.6285 2.38097 29.1721 1.92456 28.609 1.92456Z" fill="#4C5BD4"/>
<path d="M21.9421 11.495C21.6021 11.227 21.1089 11.2852 20.8408 11.6253C20.5726 11.9654 20.6309 12.4585 20.9711 12.7266L24.4304 15.4543C24.4796 15.3472 24.5351 15.2419 24.5988 15.1391C24.8241 14.7764 25.1183 14.4828 25.4535 14.2637L21.9421 11.495Z" fill="#4C5BD4"/>
<path d="M37.7899 10.2941C39.4103 10.2941 40.724 8.98041 40.724 7.35993C40.724 5.73944 39.4103 4.42578 37.7899 4.42578C36.1694 4.42578 34.8557 5.73944 34.8557 7.35993C34.8557 8.98041 36.1694 10.2941 37.7899 10.2941Z" fill="#4C5BD4"/>
<path d="M44.9476 14.5633C44.9384 12.7252 43.4355 11.2297 41.5973 11.2297H40.1765C38.7834 14.8424 39.2914 13.5251 38.4181 15.7899L38.786 13.9365C38.813 13.8002 38.7913 13.6587 38.7243 13.537L38.1477 12.4883L38.6595 11.5575C38.6949 11.4929 38.6937 11.4146 38.6563 11.3512C38.6188 11.2879 38.5506 11.249 38.4771 11.249H37.074C37.0004 11.249 36.9323 11.2879 36.8948 11.3512C36.8573 11.4146 36.8562 11.493 36.8916 11.5575L37.4023 12.4863L36.8268 13.5332C36.7586 13.6573 36.7372 13.8018 36.7666 13.9403L37.1915 15.7899C36.9478 15.1581 35.5446 11.6705 35.3747 11.2297H33.9817C32.1435 11.2297 30.6406 12.7251 30.6314 14.5633C30.6237 16.0919 30.6301 14.8117 30.6181 17.2105L27.7508 15.4303C27.0866 15.0178 26.2137 15.2219 25.8013 15.8862C25.3889 16.5505 25.593 17.4233 26.2572 17.8358L31.2744 20.9508C32.214 21.5344 33.4313 20.8597 33.4369 19.7552C33.4397 19.2012 33.4597 15.2389 33.463 14.5775C33.464 14.414 33.5969 14.2825 33.7602 14.283C33.9234 14.2836 34.0555 14.4161 34.0555 14.5794C34.0541 21.4016 34.0247 23.3087 34.0247 38.3768C34.0247 39.3151 34.7853 40.0757 35.7236 40.0757C36.6619 40.0757 37.4225 39.3151 37.4225 38.3768V24.7973H38.1559V38.3768C38.1559 39.3151 38.9166 40.0757 39.8548 40.0757C40.7931 40.0757 41.5538 39.3151 41.5538 38.3768L41.5544 14.579C41.5544 14.4242 41.6797 14.2986 41.8345 14.2981C41.9893 14.2976 42.1154 14.4226 42.1162 14.5776L42.1684 24.9785C42.1724 25.758 42.8055 26.3871 43.584 26.3871C43.5864 26.3871 43.5888 26.3871 43.5913 26.3871C44.3731 26.3832 45.0039 25.7461 44.9999 24.9643L44.9476 14.5633Z" fill="#4C5BD4"/>
</g>
<defs>
<filter id="filter0_d" x="0" y="0" width="50" height="50" filterUnits="userSpaceOnUse" color-interpolation-filters="sRGB">
<feFlood flood-opacity="0" result="BackgroundImageFix"/>
<feColorMatrix in="SourceAlpha" type="matrix" values="0 0 0 0 0 0 0 0 0 0 0 0 0 0 0 0 0 0 127 0"/>
<feOffset dy="4"/>
<feGaussianBlur stdDeviation="2.5"/>
<feColorMatrix type="matrix" values="0 0 0 0 0 0 0 0 0 0 0 0 0 0 0 0 0 0 0.25 0"/>
<feBlend mode="normal" in2="BackgroundImageFix" result="effect1_dropShadow"/>
<feBlend mode="normal" in="SourceGraphic" in2="effect1_dropShadow" result="shape"/>
</filter>
</defs>
</svg>
