<svg width="50" height="50" viewBox="0 0 50 50" fill="none" xmlns="http://www.w3.org/2000/svg">
<g filter="url(#filter0_d)">
<path d="M29.6875 1C29.0638 1 28.4573 1.12133 27.8862 1.35937L24.3065 2.85094L23.7045 1.64773C23.4138 1.06867 22.7101 0.836328 22.1321 1.12359C21.553 1.41313 21.3184 2.11695 21.608 2.69602L22.1377 3.75477L17.0681 5.86719C16.1915 6.23109 15.625 7.15953 15.625 8.10938C15.625 9.40141 16.6767 10.4531 17.9688 10.4531H29.6875C32.2727 10.4531 34.375 8.27273 34.375 5.6875C34.375 3.10227 32.2727 1 29.6875 1Z" fill="#4C5BD4"/>
<path d="M13.2812 15.1406C13.2812 16.4349 14.3305 17.4844 15.625 17.4844H15.7434C15.6942 17.0963 15.625 16.7138 15.625 16.3125V12.7969C14.3305 12.7969 13.2812 13.8462 13.2812 15.1406Z" fill="#4C5BD4"/>
<path d="M34.375 16.3125C34.375 16.7138 34.3058 17.0963 34.2566 17.4844H34.375C35.6695 17.4844 36.7188 16.4349 36.7188 15.1406C36.7188 13.8462 35.6695 12.7969 34.375 12.7969V16.3125Z" fill="#4C5BD4"/>
<path d="M17.9688 12.7969V16.3125C17.9688 20.1958 21.1167 23.4219 25 23.4219C28.8833 23.4219 32.0312 20.1958 32.0312 16.3125V12.365C31.2945 12.6276 30.5134 12.7969 29.6875 12.7969H17.9688Z" fill="#4C5BD4"/>
<path d="M33.2031 31.4504V37.1301L35.2687 34.0318L33.2031 31.4504Z" fill="#4C5BD4"/>
<path d="M16.7968 37.1301V31.4504L14.7312 34.0318L16.7968 37.1301Z" fill="#4C5BD4"/>
<path d="M23.8281 35.1405C22.0208 35.1405 20.3874 34.4361 19.1406 33.3118V40.9999H30.8594V33.3118C29.6126 34.4361 27.9792 35.1405 26.1719 35.1405H23.8281Z" fill="#4C5BD4"/>
<path d="M37.8906 26.9375H33.2031V27.6974L37.6343 33.2363C37.9524 33.6357 37.9765 34.1942 37.6938 34.6188L33.4396 41H43.8281C44.4759 41 45 40.4759 45 39.8281V33.9688C45 30.0915 41.7679 26.9375 37.8906 26.9375Z" fill="#4C5BD4"/>
<path d="M5 33.9688V39.8281C5 40.4759 5.52414 41 6.17188 41H16.5604L12.3062 34.6188C12.0236 34.1941 12.0476 33.6357 12.3658 33.2363L16.7969 27.6974V26.9375H12.1094C8.23211 26.9375 5 30.0915 5 33.9688Z" fill="#4C5BD4"/>
<path d="M29.6875 24.5938V24.4614C28.3029 25.269 26.7151 25.7656 25 25.7656C23.2849 25.7656 21.6971 25.269 20.3125 24.4614V24.5938C20.3125 25.4498 19.8281 26.1681 19.1406 26.5772V28.1094C19.1406 30.6946 21.2429 32.7969 23.8281 32.7969H26.1719C28.7571 32.7969 30.8594 30.6946 30.8594 28.1094V26.5772C30.1719 26.1681 29.6875 25.4498 29.6875 24.5938Z" fill="#4C5BD4"/>
</g>
<defs>
<filter id="filter0_d" x="0" y="0" width="50" height="50" filterUnits="userSpaceOnUse" color-interpolation-filters="sRGB">
<feFlood flood-opacity="0" result="BackgroundImageFix"/>
<feColorMatrix in="SourceAlpha" type="matrix" values="0 0 0 0 0 0 0 0 0 0 0 0 0 0 0 0 0 0 127 0"/>
<feOffset dy="4"/>
<feGaussianBlur stdDeviation="2.5"/>
<feColorMatrix type="matrix" values="0 0 0 0 0 0 0 0 0 0 0 0 0 0 0 0 0 0 0.25 0"/>
<feBlend mode="normal" in2="BackgroundImageFix" result="effect1_dropShadow"/>
<feBlend mode="normal" in="SourceGraphic" in2="effect1_dropShadow" result="shape"/>
</filter>
</defs>
</svg>
